<?xml version="1.0" encoding="UTF-8"?>
<svg xmlns="http://www.w3.org/2000/svg" xmlns:xlink="http://www.w3.org/1999/xlink" viewBox="96.58 128.77 303.26 145.85999999999999" version="1.1">
<g style="stroke:none;fill-rule:nonzero;">
  <path style="fill:#721e77;" d="M389.78 274.63l-283.14 0c-5.53 0-10.06-4.53-10.06-10.06l0-125.73c0-5.53 4.53-10.06 10.06-10.07l283.14 0c5.53 0 10.06 4.53 10.06 10.07l0 125.73c0 5.54-4.53 10.06-10.06 10.06"/>
  <path style="fill:#39d52d;" d="M235.32 157.21c-.02.82-.82 1.2-2.1 1.98-1.03.63-1.28 1.47-.81 2.32.34-.18.77-.41 1.14-.69.55-.43.94-.76 1.19-1.17.16-.26.31-.52.37-.76.06-.24.01.23-.3.77-.24.41-.6.82-1.15 1.27-.34.28-.68.53-1.03.74-.1.06-.21.12-.33.18-.33.16-.65.29-.98.38-.32.09-.63.16-.89.21l.02.12c.26-.04.57-.11.91-.21.33-.1.66-.24.99-.41.13-.07.35-.18.47-.26 3.78-.05 2.95-3.49 2.5-4.47"/>
  <path style="fill:#39d52d;" d="M313.87 188.74l-.04-.03c-12.6 16.01-48.33 5.8-63.9.91-5.36-1.68-10.63-3.58-15.93-5.54-5.32-1.85-10.67-3.7-16.23-4.81-2.78-.53-5.62-.94-8.49-.67-2.84.29-5.67 1.1-8.06 2.75-5.77 4.03-4.52 12.19.98 13.84l.02-.05c-4.19-1.42-5.57-6.56-3.47-10.38 1.98-3.59 6.74-5.15 10.59-5.46 2.75-.21 5.54.23 8.26.8 5.45 1.22 10.78 3.02 16.07 4.92 5.25 1.98 10.56 3.93 15.92 5.64 16.11 5.1 52 14.72 64.28-1.92m-94.29-14.05c11.52 2.74 22.74 6.67 34.35 9.21 9.73 2.12 21.07 3.54 31.02 1.64 9.86-1.87 20.81-7.08 25.53-16.42 1.5-2.96 2.39-6.84 1.93-10.15-.52-3.75-2.84-6.5-6.75-6.7-.1 0-.1.05 0 .06 1.69.13 3.36.8 4.5 2.05 2.37 2.58 2.31 6.51 1.63 9.72-1.09 5.16-4.23 9.31-8.28 12.61-2.65 2.17-5.7 3.8-8.87 5.11-6.44 2.66-13.14 3.73-20.09 3.73-19.43 0-36.53-7.36-54.91-11.56-11.25-2.57-29.29-6.5-37.45 4.56-1.47 2-2.37 4.59-2.41 7.45 0 .07.1.07.11.01.06-2.8.95-5.15 2.41-7.07 3.73-4.91 10.59-6.71 16.46-6.98 7.02-.32 14.5 1.22 20.82 2.73m13.67-4.39c6.67 2.4 13.35 4.81 20.17 6.82 9.7 2.83 21.45 5.49 31.59 3.35 3.48-.74 6.97-1.93 9.81-4.2 2.78-2.25 4.73-6.03 3.33-9.59-1.66-4.26-6.98-3.84-8.49-.63l.03.02c.78-1.62 2.63-2.51 4.37-2.34 4.79.43 6.27 7.59.44 12.16-5.22 4.09-13.67 4.98-20.11 4.52-13.52-.96-28.08-6.42-40.8-11.03-12.96-4.7-27.57-9.52-41.56-8.33-7.13.61-14.25 2.72-19.69 7.56-5.53 4.91-8.55 11.63-7.45 19.05 0 .01 0 .03.01.05.02.05.06.05.06 0 0-.02 0-.04 0-.06-.44-3.49.03-7.09 1.42-10.31 1.38-3.25 3.64-6.06 6.3-8.33 5.45-4.68 12.36-6.68 19.42-7.19 14.15-1.01 28.03 3.72 41.15 8.48m90.6 7.32c-5.37-4.39-14.25-1.43-13.51 5.97.01.13.06.12.05-.01-.18-2.1.43-4.05 1.98-5.54 4.52-4.34 13.25-1.76 13.95 5.14.41 4.02-1.59 8.2-4.52 10.87-6 5.45-14.85 7.78-22.79 8.41-11.3.9-26-1.48-36.81-4.85-.09-.03-.13.1-.04.13 11.05 3.7 25.11 6.27 36.9 5.38 8.12-.61 17.03-2.96 23.17-8.6 1.56-1.43 2.82-3.21 3.64-5.17 1.68-3.96 1.6-8.78-2.02-11.73m-154.62-11.96c8.22-7.71 20.3-9.52 31.12-8.97 8.44.44 16.48 2.23 24.41 5.13 1.34.48 6.92 2.95 9.15 3.34 5.51 4.32 8.31-1.6 8.79-3.51-.98 1.16-2.57.77-5.34.39-2.22-.3-3.72.53-3.81 2.55.73.2 1.47.27 2.34.29 1.29.02 2.3-.1 3.13-.4.54-.19 1.05-.39 1.42-.66.37-.27-.26.34-1.34.75-.82.32-1.87.59-3.17.6-.82 0-1.57-.02-2.31-.24-3-.85-6.66-2.77-8.66-3.62-7.54-3.17-16.43-5.25-24.55-5.68-10.76-.57-23.6 1.6-31.25 9.96-.04.05.02.11.07.07"/>
  <path style="fill:#ffffff;" d="M193.85 230.19c.12-.18.22-.27.34-.28l.66 0c.13 0 .21.05.21.14 0 .06-.03.12-.08.2l-1.25 1.62c-.06.09-.16.14-.24.15l-.33 0c-.19 0-.27-.04-.27-.12 0-.05.03-.1.07-.18zm1.46 10.25c-1.32.99-2.26 1.36-3.38 1.37-1.53 0-2.52-.91-2.52-2.32 0-.79.32-1.47.91-1.97.31-.26.56-.37 1.09-.55-.48-.34-.71-.82-.71-1.39 0-1.11 1.05-2.5 2.8-2.5.96 0 1.6.57 1.6 1.44 0 .74-.6 1.43-1.25 1.42-.12 0-.25-.27-.24-.54 0-.08.04-.12.15-.18.29-.17.44-.4.44-.66 0-.41-.35-.71-.81-.72-.86 0-1.71.93-1.72 1.87 0 .54.32.98.8.98l.58-.03c.43 0 .51.04.51.3 0 .6-.18.6-.58.59-.21 0-.36-.01-.6-.05-.09-.02-.16-.03-.2-.02-.47 0-1.75.66-1.75 1.98 0 .9.69 1.48 1.72 1.48 1.04 0 2.14-.55 3.16-1.57z"/>
  <path style="fill:#ffffff;" d="M200.04 240.45c-1.02.97-1.89 1.39-2.95 1.39-1.64 0-1.87-1.27-1.86-1.85 0-1.68 1.32-3.29 2.71-3.29.7 0 1.13.38 1.13 1.01 0 .56-.28 1.13-.73 1.43-.27-.12-.49-.26-.66-.46.39-.55.47-.65.46-.89 0-.22-.12-.32-.34-.32-.69 0-1.51 1.47-1.51 2.48 0 .65.4 1.07 1 1.07.83 0 1.75-.56 2.75-1.65z"/>
  <path style="fill:#ffffff;" d="M206.13 240.45c-.3.23-.64.35-.98.35-.47 0-.84-.18-1.24-.61-.64 1.13-1.36 1.64-2.35 1.63-1.01 0-1.62-.69-1.62-1.84 0-1.17.6-2.32 1.5-2.89.44-.27.86-.37 1.52-.38l-.05.73c-.52.08-.83.21-1.14.49-.43.38-.7 1.13-.7 1.91 0 .72.27 1.15.75 1.15.64 0 1.3-.78 1.47-1.71-.09-.34-.12-.44-.12-.67 0-.25.06-1.04.31-1.46l.84 0c.08.31.09.47.09.76 0 .47-.07.9-.22 1.42.43.45.7.62 1.01.62.3 0 .57-.17.93-.58z"/>
  <path style="fill:#ffffff;" d="M209.25 234.38c0-.26-.09-.44-.23-.44-.15 0-.32.17-.48.49-.53 1.1-.92 2.29-1.2 3.61 1.09-1.54 1.91-2.7 1.91-3.66m1.07 6.07c-1.32 1.01-2.12 1.38-3 1.37-.32 0-.62-.1-.78-.26-.27-.28-.48-.92-.48-1.52 0-1.18.5-3.02.82-3.87.53-1.43.75-2 1.36-2.66.31-.3.61-.44.91-.44.49 0 .87.49.87 1.13 0 1.5-1.45 3.41-2.84 5.08-.04.32-.05.43-.07.76 0 .65.18.91.6.91.65 0 1.75-.66 2.61-1.58z"/>
  <path style="fill:#ffffff;" d="M213.13 237.61c0-.18-.1-.28-.29-.29-.57 0-1.23.79-1.43 1.73 1.06-.38 1.72-.92 1.72-1.45m2.05 2.83c-1.31.96-2.52 1.41-3.72 1.42-.96 0-1.23-.97-1.24-1.81 0-1.83 1.3-3.51 2.73-3.51.65 0 1.01.35 1.01.96 0 1.31-1.57 1.93-2.41 2.28l-.26.1c-.01.4-.03 1.15.65 1.15.98 0 1.92-.48 3.24-1.65z"/>
  <path style="fill:#ffffff;" d="M221.63 237.67c.27.22.47.3.76.3.86 0 1.57-.94 1.57-2.07 0-1.17-.83-1.94-2.07-1.95-1.48 0-2.53.96-2.54 1.7 0 .21.11.36.37.5.16.08.2.12.2.2 0 .23-.17.43-.37.43-.54 0-1.05-.56-1.05-1.19 0-1.35 1.54-2.5 3.36-2.5 1.89 0 3.13 1.09 3.13 2.81 0 1.59-1.22 2.97-2.62 2.96-.39 0-.56-.07-.95-.25-.03.11-.04.17-.08.33-.48 2.15-.99 2.87-2 2.87-.37 0-.46-.12-.59-.7l-.07-.31c.26.05.34.07.46.06.6 0 .88-.6 1.33-2.77.26-1.25.53-2.39.99-3.39.21-.01.29-.02.48-.02.26 0 .34.01.54.05-.34.84-.57 1.73-.77 2.62z"/>
  <path style="fill:#ffffff;" d="M225.12 239.45c.65-.71 1.07-1.35 1.5-2.27-.12-.22-.18-.42-.18-.57 0-.18.07-.47.15-.68.04-.12.13-.16.33-.15.69 0 .78.09.78.43 0 .23-.05.41-.2.79.95.34 1.43.55 1.43 1.45 0 .36-.1.78-.36 1.43-.14.38-.22.64-.22.76 0 .15.08.22.2.22.36 0 1.04-.49 2.04-1.49l0 1.08c-1.07.92-1.91 1.39-2.55 1.39-.47 0-.79-.41-.79-1 0-.34.1-.71.36-1.31.21-.48.3-.79.3-1 0-.37-.22-.66-.66-.85-.53 1.09-1.21 1.98-2.13 2.82z"/>
  <path style="fill:#ffffff;" d="M233.14 234.32c0 .27-.17.77-.33.95-.1.11-.22.15-.52.14-.35 0-.48-.09-.48-.32 0-.13.11-1.13.7-1.13.4 0 .63.13.63.36m.57 6.13c-.07.06-.1.09-.24.19-1 .83-1.67 1.2-2.27 1.2-.16 0-.27-.04-.37-.12-.18-.16-.31-.83-.31-1.58 0-.92.3-2.15.8-3.43l1.06 0-.13.39c-.53 1.59-.71 2.39-.71 3.12 0 .44.07.61.23.6.41 0 1.4-.95 1.94-1.45z"/>
  <path style="fill:#ffffff;" d="M233.75 241.76c-.08-.66-.1-1.74-.11-1.86 0-.68.29-1.87.78-3.2l1.1 0-.07.18c-.22.6-.32.92-.46 1.43 1.15-1.16 1.74-1.56 2.23-1.56.35 0 .84.38.78 1.47.13-.1.21-.16.41-.33.81-.65 1.27-.91 1.68-.91.47 0 .84.48.84 1.09 0 .26-.09.65-.3 1.25-.21.56-.31 1-.31 1.23 0 .21.08.36.2.36.31 0 1.11-.62 1.97-1.54l0 1.08c-.94.93-1.69 1.38-2.32 1.37-.78 0-.89-.88-.9-1.11 0-.37.13-.92.41-1.69.14-.41.22-.73.22-.86 0-.13-.08-.23-.19-.23-.26 0-1.57 1.2-1.68 1.3l-.2.18c-.05.36-.16.88-.52 2.35l-1.06 0c.34-1.28.49-1.92.62-2.66.08-.41.12-.67.12-.85 0-.22-.08-.35-.21-.34-.3 0-1.04.69-2.05 1.64-.02.34-.02.54-.02.85 0 .26.01.65.02.97l0 .39z"/>
  <path style="fill:#ffffff;" d="M246.11 238.25c-.52-.59-.66-.78-1-.77-.8 0-1.58 1.1-1.58 2.24 0 .69.27 1.21.63 1.21.36 0 1.02-.55 1.59-1.33.03-.04.05-.07.06-.07zm2.46 2.2c-.98.92-1.73 1.36-2.3 1.36-.7 0-.66-.85-.65-1.22-.82.88-1.3 1.21-1.79 1.21-.77 0-1.41-.83-1.42-1.82 0-1.91 1.44-3.3 2.6-3.3.5 0 .91.26 1.27.82l.22-.8 1.05 0-.66 2.66c-.1.43-.21 1.02-.21 1.18 0 .16.05.25.14.24.27 0 .95-.55 1.75-1.41z"/>
  <path style="fill:#ffffff;" d="M251.12 234.32c0 .27-.17.77-.33.95-.1.11-.22.15-.52.14-.35 0-.48-.09-.48-.32 0-.13.11-1.13.71-1.13.4 0 .62.13.62.36m.57 6.13c-.06.06-.1.09-.24.19-1 .83-1.67 1.2-2.27 1.2-.16 0-.27-.04-.37-.12-.18-.16-.31-.83-.31-1.58 0-.92.3-2.15.8-3.43l1.06 0-.13.39c-.53 1.59-.71 2.39-.71 3.12 0 .44.07.61.23.6.42 0 1.4-.95 1.94-1.45z"/>
  <path style="fill:#ffffff;" d="M251.63 239.45c.65-.71 1.06-1.35 1.5-2.27-.12-.22-.18-.42-.18-.57 0-.18.07-.47.14-.68.04-.12.13-.16.34-.15.69 0 .78.09.77.43 0 .23-.05.41-.19.79.95.34 1.43.55 1.43 1.45 0 .36-.1.78-.37 1.43-.14.38-.22.64-.22.76 0 .15.08.22.21.22.37 0 1.04-.49 2.04-1.49l0 1.08c-1.06.92-1.91 1.39-2.56 1.39-.47 0-.79-.41-.79-1 0-.34.11-.71.36-1.31.21-.48.3-.79.3-1 0-.37-.22-.66-.66-.85-.53 1.09-1.21 1.98-2.12 2.82z"/>
  <path style="fill:#ffffff;" d="M259.91 237.61c0-.18-.1-.28-.28-.29-.57 0-1.23.79-1.44 1.73 1.06-.38 1.73-.92 1.72-1.45m2.05 2.83c-1.31.96-2.52 1.41-3.72 1.42-.96 0-1.23-.97-1.23-1.81 0-1.83 1.3-3.51 2.72-3.51.65 0 1.01.35 1.01.96 0 1.31-1.57 1.93-2.41 2.28l-.26.1c-.01.4-.02 1.15.65 1.15.99 0 1.92-.48 3.24-1.65z"/>
  <path style="fill:#ffffff;" d="M269.15 240.46c.48.23.78.32 1.04.33 1.09 0 2.11-1.77 2.11-3.66 0-1.94-1.09-3.2-2.79-3.21-1.44 0-2.59 1.01-2.59 2.29 0 .78.4 1.31 1.19 1.56.02-.07.04-.11.08-.27.26-.96.54-1.92.95-2.82.36-.04.68-.03 1.01.02-.4 1.01-.74 2.4-.92 3.34.5 0 .55 0 .78-.04-.04.34-.38.57-.97.66-.16.61-.36 1.16-.59 1.56.23.04.36.09.7.24m-2.41-2.39c-.51-.44-.8-1.12-.81-1.84 0-1.77 1.61-3.18 3.61-3.17 2.05 0 3.71 1.44 3.71 3.92 0 2.88-1.78 4.81-3.34 4.82-.37 0-.71-.12-1.32-.43-.32-.16-.44-.21-.66-.28-.68.56-1.03.73-1.58.73-.36 0-.53-.13-.53-.41 0-.36.43-1.02 1.63-1.18.18-.32.35-.91.48-1.62-.57-.1-.85-.23-1.19-.54"/>
  <path style="fill:#ffffff;" d="M276.53 234.32c0 .27-.17.77-.32.95-.1.11-.22.15-.52.14-.35 0-.48-.09-.48-.32 0-.13.11-1.13.7-1.13.4 0 .62.13.62.36m.57 6.13c-.06.06-.1.09-.23.19-1 .83-1.67 1.2-2.27 1.2-.15 0-.27-.04-.38-.12-.18-.16-.31-.83-.31-1.58 0-.92.3-2.15.81-3.43l1.06 0-.13.39c-.53 1.59-.71 2.39-.71 3.12 0 .44.06.61.23.6.42 0 1.4-.95 1.93-1.45z"/>
  <path style="fill:#ffffff;" d="M280.7 238.29c-.45-.6-.69-.79-.98-.79-.75 0-1.59.96-1.59 2.26 0 .68.27 1.2.62 1.21.36 0 .9-.45 1.66-1.43zm1.28-5.04 1.05 0-1.31 5.12c-.23.95-.46 2-.45 2.22 0 .13.07.22.14.22.13 0 .7-.25 1.78-1.44l0 1.08c-1.08 1-1.73 1.39-2.35 1.39-.62 0-.64-.65-.64-1.2-.74.81-1.31 1.2-1.79 1.2-.77 0-1.39-.83-1.39-1.85 0-1.93 1.45-3.28 2.57-3.28.48 0 .82.22 1.29.81z"/>
  <path style="fill:#ffffff;" d="M286 237.61c0-.18-.1-.28-.28-.29-.57 0-1.23.79-1.44 1.73 1.06-.38 1.73-.92 1.72-1.45m2.05 2.83c-1.31.96-2.52 1.41-3.72 1.42-.96 0-1.23-.97-1.23-1.81 0-1.83 1.3-3.51 2.72-3.51.65 0 1.01.35 1.01.96 0 1.31-1.57 1.93-2.41 2.28l-.26.1c-.01.4-.03 1.15.65 1.15.98 0 1.92-.48 3.24-1.65z"/>
  <path style="fill:#ffffff;" d="M287.99 239.45c.65-.71 1.06-1.35 1.5-2.27-.12-.22-.18-.42-.18-.57 0-.18.06-.47.14-.68.04-.12.13-.16.34-.15.69 0 .78.09.78.43 0 .23-.05.41-.2.79.95.34 1.43.55 1.43 1.45 0 .36-.1.78-.36 1.43-.14.38-.22.64-.22.76 0 .15.08.22.21.22.36 0 1.04-.49 2.03-1.49l0 1.08c-1.06.92-1.91 1.39-2.55 1.39-.46 0-.79-.41-.8-1 0-.34.11-.71.37-1.31.21-.48.3-.79.3-1 0-.37-.22-.66-.67-.85-.53 1.09-1.2 1.98-2.12 2.82z"/>
  <path style="fill:#ffffff;" d="M299.55 240.45c-.3.23-.64.35-.98.35-.47 0-.84-.18-1.24-.61-.64 1.13-1.36 1.64-2.35 1.63-1.01 0-1.62-.69-1.62-1.84 0-1.17.6-2.32 1.5-2.89.44-.27.86-.37 1.52-.38l-.05.73c-.52.08-.83.21-1.14.49-.43.38-.7 1.13-.7 1.91 0 .72.27 1.15.75 1.15.64 0 1.3-.78 1.47-1.71-.09-.34-.12-.44-.12-.67 0-.25.06-1.04.31-1.46l.84 0c.08.31.09.47.1.76 0 .47-.07.9-.23 1.42.43.45.7.62 1.02.62.3 0 .57-.17.92-.58z"/>
  <path style="fill:#ffffff;" d="M301.12 234.03l1.06 0-.89 2.72c.64-.03.79-.03 1.18-.01l-.16.76c-.44-.03-.75-.02-1.28.02l-.07.2c-.26.92-.36 1.48-.36 2.04 0 .66.16 1.09.39 1.09.23 0 .88-.41 1.93-1.48l0 1.07c-1.28 1.18-2.01 1.36-2.37 1.37-.64 0-1.06-.74-1.07-1.83 0-.6.07-1.06.38-2.09l.1-.37-.4.06.05-.51c.01-.13.12-.14.57-.22z"/>
  <path style="fill:#ff9e19;" d="M230.37 247.11c.68-.64 1.18-.98 1.44-.99.15 0 .22.13.22.39 0 .32-.16.99-.21 1.18l-.47 1.61c-.12.44-.16.65-.16.86 0 .25.11.41.26.41.54 0 1.26-1.12 1.61-1.93.16-.38.23-.61.35-1.12-.06-.14-.07-.21-.07-.37 0-.36.12-.83.24-.97.04-.04.1-.05.26-.06.22 0 .26.06.26.32 0 .31-.06.64-.19 1.11.12.15.29.32.39.38l-.28.28c-.03.04-.16-.1-.21-.16l-.07-.07c-.84 2.57-1.96 3.12-2.47 3.12-.39 0-.67-.36-.67-.87 0-.28.08-.74.22-1.2l.42-1.48c.08-.27.12-.45.12-.57 0-.05-.01-.07-.02-.07-.1 0-.55.37-.86.62z"/>
  <path style="fill:#ff9e19;" d="M235.9 246.84c0 .15-.09.43-.18.54-.06.06-.12.08-.3.08-.2 0-.27-.05-.27-.19 0-.07.06-.64.4-.64.23 0 .36.07.35.21m.33 3.49c-.03.04-.06.05-.14.11-.57.47-.95.68-1.29.68-.09 0-.15-.02-.21-.07-.1-.09-.18-.48-.18-.9 0-.53.17-1.23.46-1.95l.6 0-.07.22c-.3.91-.41 1.36-.41 1.77 0 .25.04.35.13.35.24 0 .8-.54 1.11-.83z"/>
  <path style="fill:#ff9e19;" d="M237.83 248.71c0-.1-.06-.16-.16-.16-.32 0-.7.45-.82.98.61-.21.98-.53.98-.82m1.17 1.61c-.75.55-1.43.81-2.12.81-.55 0-.7-.55-.7-1.03 0-1.04.74-2 1.55-2 .37 0 .58.2.57.55 0 .75-.89 1.1-1.37 1.3l-.15.05c0 .23-.01.65.37.65.56 0 1.09-.27 1.85-.93z"/>
  <path style="fill:#ff9e19;" d="M242.47 250.33c-.52.5-1.02.79-1.38.78-.26 0-.35-.24-.37-.92-.44.56-.96.93-1.34.92-.27 0-.41-.32-.41-.98 0-.52.11-1 .46-1.94l.59 0c-.33.99-.46 1.52-.47 1.94 0 .28.05.4.15.4.16 0 .64-.34 1.12-1.05.09-.43.21-.85.35-1.29l.6 0-.29.99c-.11.4-.2.86-.2 1.07 0 .16.05.29.13.28.19 0 .56-.29 1.06-.82z"/>
  <path style="fill:#ff9e19;" d="M242.44 249.75c.13-.18.21-.27.35-.47.35-.49.79-1.1 1.26-1.1.23 0 .33.13.48.64.03.1.04.16.09.29l.79-.92.32.27-.97 1.16.05.19c.18.62.22.75.37.75.16 0 .43-.19.88-.61.12-.11.16-.16.26-.23l0 .61c-.68.56-1.05.77-1.37.77-.33 0-.41-.24-.64-.95l-.8.94-.33-.27.98-1.16c-.12-.53-.2-.87-.33-.86-.11 0-.27.16-.53.53-.29.41-.53.7-.86 1.04z"/>
  <path style="fill:#ff9e19;" d="M246.58 249.43c.15-.03.33-.05.51-.06.07 0 .43.02.5.02.12 0 .19-.01.33-.04.08-.02.11-.02.16-.02l-.16.58c-.15.05-.27.06-.46.05-.08 0-.48-.02-.57-.02-.1 0-.32.03-.47.06z"/>
  <path style="fill:#ff9e19;" d="M251.52 247.11c0-.3-.09-.46-.27-.46-.35 0-.66.66-.93 2.05.73 0 1.2-.83 1.2-1.59m-2.38 1.35c.33.14.43.18.58.22.27-1.25.49-1.83.83-2.18.23-.24.49-.37.74-.37.47 0 .75.39.75 1.02 0 1.09-.84 2.01-1.86 2.05-.1.47-.21.79-.42 1.12.06 0 .08-.01.14-.01.15 0 .34.06.61.14.3.1.47.13.61.14.35 0 .74-.24 1.36-.88l0 .62c-.59.54-1.08.79-1.5.78-.23 0-.57-.09-1-.24-.22-.08-.33-.11-.45-.14-.44.26-.77.37-1.1.37-.1 0-.12-.02-.13-.1 0-.22.06-.33.21-.42.2-.11.43-.18.74-.21.12-.2.16-.36.37-1.22l-.2-.06c-.44-.14-.55-.22-.56-.4 0-.13.02-.25.06-.33.05.01.07.03.11.05z"/>
  <path style="fill:#ff9e19;" d="M253.93 246.84c0 .15-.09.43-.19.54-.06.06-.12.08-.3.08-.2 0-.27-.05-.27-.19 0-.07.06-.64.4-.64.23 0 .35.07.36.21m.32 3.49c-.04.04-.06.05-.13.11-.57.47-.95.68-1.3.68-.09 0-.15-.02-.21-.07-.1-.09-.18-.48-.18-.9 0-.53.17-1.23.46-1.95l.61 0-.07.22c-.3.91-.41 1.36-.41 1.77 0 .25.04.35.13.35.24 0 .8-.54 1.1-.83z"/>
  <path style="fill:#ff9e19;" d="M256.03 246.87c0-.14-.05-.25-.13-.25-.09 0-.18.1-.27.28-.3.63-.52 1.31-.68 2.05.62-.88 1.09-1.54 1.08-2.08m.61 3.46c-.75.58-1.21.79-1.71.78-.18 0-.35-.06-.44-.15-.16-.16-.27-.53-.27-.86 0-.67.28-1.72.46-2.21.31-.82.43-1.14.78-1.52.18-.17.35-.25.51-.25.28 0 .5.28.5.65 0 .86-.83 1.94-1.62 2.89-.02.18-.03.24-.04.44 0 .37.11.52.34.52.37 0 1-.38 1.49-.91z"/>
  <path style="fill:#ff9e19;" d="M258.42 246.87c0-.14-.05-.25-.13-.25-.09 0-.19.1-.27.28-.3.63-.53 1.31-.68 2.05.62-.88 1.09-1.54 1.08-2.08m.61 3.46c-.75.58-1.21.79-1.71.78-.18 0-.35-.06-.44-.15-.15-.16-.27-.53-.28-.86 0-.67.28-1.72.47-2.21.31-.82.43-1.14.77-1.52.18-.17.35-.25.52-.25.28 0 .5.28.5.65 0 .86-.83 1.94-1.62 2.89-.02.18-.03.24-.04.44 0 .37.11.52.34.52.37 0 1-.38 1.49-.91z"/>
  <path style="fill:#ff9e19;" d="M260.63 248.71c0-.1-.06-.16-.16-.16-.32 0-.7.45-.82.98.61-.21.98-.53.98-.82m1.17 1.61c-.75.55-1.43.81-2.12.81-.55 0-.7-.55-.7-1.03 0-1.04.74-2 1.55-2 .37 0 .58.2.57.55 0 .75-.89 1.1-1.37 1.3l-.15.05c-.01.23-.02.65.37.65.56 0 1.09-.27 1.85-.93z"/>
  <path style="fill:#39d52d;" d="M342.4 182.19c-.64 0-1.15-.52-1.15-1.15 0-.63.52-1.15 1.15-1.15.64 0 1.15.51 1.15 1.15 0 .64-.51 1.16-1.15 1.15m0-3.48c-2.46.01-4.44 2-4.44 4.46l.09 41.56 8.89-.02-.09-41.56c0-2.46-2-4.44-4.45-4.44"/>
  <path style="fill:#39d52d;" d="M343.55 181.04c0 .64-.51 1.15-1.15 1.15l.1 42.53 4.44-.01-.09-41.56c0-2.46-2-4.44-4.46-4.44l.01 1.18c.63 0 1.15.51 1.15 1.15"/>
  <path style="fill:#721e77;" d="M343.4 183.92l3.46-.01-.01-.6-3.45.01z"/>
  <path style="fill:#721e77;" d="M344.61 185.48l2.25 0-.01-.61-2.24 0z"/>
  <path style="fill:#721e77;" d="M344.61 187.04l2.25 0 0-.61-2.25.01z"/>
  <path style="fill:#721e77;" d="M344.62 188.6l2.24 0 0-.61-2.25.01z"/>
  <path style="fill:#721e77;" d="M344.62 190.16l2.25 0 0-.61-2.25.01z"/>
  <path style="fill:#721e77;" d="M343.41 191.73l3.46-.01 0-.61-3.46.01z"/>
  <path style="fill:#721e77;" d="M344.63 193.29l2.25-.01 0-.6-2.25 0z"/>
  <path style="fill:#721e77;" d="M344.63 194.85l2.25-.01 0-.6-2.25 0z"/>
  <path style="fill:#721e77;" d="M344.63 196.41l2.25 0 0-.61-2.25 0z"/>
  <path style="fill:#721e77;" d="M344.64 197.97l2.25-.01-.01-.6-2.24 0z"/>
  <path style="fill:#721e77;" d="M343.43 199.54l3.46-.01 0-.61-3.46.01z"/>
  <path style="fill:#721e77;" d="M344.65 201.09l2.24 0 0-.61-2.24.01z"/>
  <path style="fill:#721e77;" d="M344.65 202.66l2.25-.01 0-.61-2.25.01z"/>
  <path style="fill:#721e77;" d="M344.65 204.22l2.25-.01 0-.6-2.25 0z"/>
  <path style="fill:#721e77;" d="M344.65 205.78l2.25-.01 0-.61-2.25.01z"/>
  <path style="fill:#721e77;" d="M343.45 207.34l3.46-.01-.01-.6-3.46 0z"/>
  <path style="fill:#721e77;" d="M344.66 208.9l2.25-.01 0-.6-2.25 0z"/>
  <path style="fill:#721e77;" d="M344.66 210.46l2.25 0 0-.61-2.25 0z"/>
  <path style="fill:#721e77;" d="M344.67 212.02l2.24 0 0-.61-2.25 0z"/>
  <path style="fill:#721e77;" d="M344.67 213.58l2.25 0 0-.61-2.25.01z"/>
  <path style="fill:#721e77;" d="M343.46 215.15l3.46-.01 0-.61-3.46.01z"/>
  <path style="fill:#721e77;" d="M344.68 216.71l2.25-.01-.01-.61-2.24.01z"/>
  <path style="fill:#721e77;" d="M344.68 218.27l2.25-.01 0-.6-2.25 0z"/>
  <path style="fill:#721e77;" d="M344.68 219.83l2.25-.01 0-.61-2.25.01z"/>
  <path style="fill:#721e77;" d="M344.69 221.39l2.25-.01-.01-.6-2.24 0z"/>
  <path style="fill:#721e77;" d="M343.48 222.95l3.46 0 0-.61-3.46.01z"/>
  <path style="fill:#721e77;" d="M337.96 183.94l1.77 0 0-.62-1.77.01z"/>
  <path style="fill:#721e77;" d="M337.96 185.24l1.15 0 0-.62-1.15.01z"/>
  <path style="fill:#721e77;" d="M337.97 186.54l1.15 0 0-.61-1.16 0z"/>
  <path style="fill:#721e77;" d="M337.97 187.84l1.15 0 0-.61-1.16 0z"/>
  <path style="fill:#721e77;" d="M337.97 189.15l1.15-.01 0-.61-1.15 0z"/>
  <path style="fill:#721e77;" d="M337.97 190.45l1.78-.01 0-.61-1.78 0z"/>
  <path style="fill:#721e77;" d="M337.98 191.75l1.15-.01 0-.61-1.16 0z"/>
  <path style="fill:#721e77;" d="M337.98 193.05l1.15-.01 0-.61-1.15 0z"/>
  <path style="fill:#721e77;" d="M337.98 194.35l1.15-.01 0-.61-1.15 0z"/>
  <path style="fill:#721e77;" d="M337.98 195.65l1.16-.01 0-.61-1.16 0z"/>
  <path style="fill:#721e77;" d="M337.99 196.95l1.77 0 0-.62-1.78.01z"/>
  <path style="fill:#721e77;" d="M337.99 198.25l1.15 0 0-.62-1.15.01z"/>
  <path style="fill:#721e77;" d="M337.99 199.55l1.16 0 0-.62-1.16.01z"/>
  <path style="fill:#721e77;" d="M338 200.85l1.15 0 0-.62-1.16.01z"/>
  <path style="fill:#721e77;" d="M338 202.15l1.15 0 0-.62-1.15.01z"/>
  <path style="fill:#721e77;" d="M338 203.45l1.78 0 0-.61-1.78 0z"/>
  <path style="fill:#721e77;" d="M338 204.75l1.16 0 0-.61-1.16 0z"/>
  <path style="fill:#721e77;" d="M338.01 207.36l1.15-.01 0-.61-1.15 0z"/>
  <path style="fill:#721e77;" d="M338 206.05l1.16 0 0-.61-1.16 0z"/>
  <path style="fill:#721e77;" d="M338.01 208.66l1.15-.01 0-.61-1.15 0z"/>
  <path style="fill:#721e77;" d="M338.02 209.96l1.77-.01 0-.61-1.78 0z"/>
  <path style="fill:#721e77;" d="M338.02 211.26l1.15-.01 0-.61-1.15.01z"/>
  <path style="fill:#721e77;" d="M338.02 212.56l1.15-.01 0-.61-1.15 0z"/>
  <path style="fill:#721e77;" d="M338.02 213.86l1.16-.01 0-.61-1.16.01z"/>
  <path style="fill:#721e77;" d="M338.03 215.16l1.15 0 0-.62-1.16.01z"/>
  <path style="fill:#721e77;" d="M338.03 216.46l1.78 0-.01-.62-1.77.01z"/>
  <path style="fill:#721e77;" d="M338.03 217.76l1.15 0 0-.61-1.15 0z"/>
  <path style="fill:#721e77;" d="M338.04 219.06l1.15 0 0-.62-1.16.01z"/>
  <path style="fill:#721e77;" d="M338.04 220.36l1.15 0 0-.61-1.15 0z"/>
  <path style="fill:#721e77;" d="M338.04 221.66l1.15 0 0-.61-1.15 0z"/>
  <path style="fill:#721e77;" d="M338.04 222.96l1.78 0 0-.61-1.78 0z"/>
  <path style="fill:#39d52d;" d="M359.97 179.55c0-.57.28-1.04.63-1.05l2.61 0c.35 0 .63.47.63 1.05l0 3.46c0 .58-.28 1.05-.63 1.05l-2.61 0c-.35 0-.63-.47-.63-1.04z"/>
  <path style="fill:#ff9e19;" d="M359.15 180.4l0 3.79-34.3.03 0-3.8z"/>
  <path style="fill:#ff9e19;" d="M359.15 178.37l0 2.92-34.3.02 0-2.92z"/>
  <path style="fill:#ffffff;" d="M324.85 184.22l-6.47-2.91 6.47-2.92z"/>
  <path style="fill:#ffffff;" d="M324.85 184.22l-6.47-2.91 6.47 0z"/>
  <path style="fill:#fd4f00;" d="M320.93 182.45l-2.55-1.14 2.61-1.18z"/>
  <path style="fill:#fd4f00;" d="M320.96 181.31l-2.58 0 2.55 1.14z"/>
  <path style="fill:#39d52d;" d="M360.6 178.5l2.61 0c.35 0 .63.47.63 1.05l0 1.73-3.87 0 0-1.73c0-.57.28-1.04.63-1.05"/>
  <path style="fill:#ffffff;" d="M360.99 178.37l0 5.82-2.71 0 0-5.82z"/>
  <path style="fill:#ffffff;" d="M360.99 178.37l0 1.21-2.71 0 0-1.21z"/>
  <path style="fill:#fd4f00;" d="M283.57 202.27c0 1.54-.86 2.31-2.57 2.32l-6.39 0 0-12.98 6.39 0c1.71 0 2.57.77 2.57 2.31zm10.26 3.59 1.46-1.47-5.7-18.31-17.94-7.53-5.41 5.41 0 40.46 8.37 0 5.4-5.4 0-6.79.3 0 3.3 12.19 8.33 0 5.4-5.4z"/>
  <path style="fill:#ff9e19;" d="M280.02 199.18l6.39 0c1.72 0 2.57-.77 2.57-2.31l0-8.35c0-1.54-.85-2.32-2.57-2.32l-6.39 0zm-8.37 19.84 0-40.46 16.46-.01c3.02 0 5.33.71 6.89 2.12 1.57 1.41 2.35 3.48 2.35 6.2l0 11.63c0 3.37-1.2 5.72-3.6 7.05l3.59 13.47-8.32 0-3.3-12.19-5.7 0 0 12.19z"/>
  <path style="fill:#ffffff;" d="M287.26 182.38c1.94 0 3.41.45 4.41 1.35 1 .9 1.5 2.22 1.49 3.96l0 9.99c0 1.52-.38 2.7-1.12 3.58-.18.2-.19.51 0 .7l1.84 1.84c.21.21.54.19.75-.01 1.23-1.22 1.83-2.96 1.83-5.29l0-11.63c0-2.48-.67-4.3-2.05-5.54-1.39-1.25-3.52-1.89-6.31-1.89l-15.08 0c-.17 0-.25.21-.12.32l2.56 2.29c.23.21.54.33.86.33z"/>
  <path style="fill:#ffffff;" d="M289.47 199.39c-.19-.19-.5-.17-.72-.01-.57.45-1.36.69-2.34.69l-6.79 0c-.27 0-.49-.22-.49-.49l0-13.77c0-.31-.13-.6-.36-.82l-2.58-2.29c-.14-.12-.36-.02-.36.17l0 19.65c0 .27.22.48.49.48l10.94 0c1.73 0 3.1-.35 4.08-1.07.21-.16.2-.47.01-.66z"/>
  <path style="fill:#ffffff;" d="M275.83 214.7c0 .31.13.61.36.82l2.58 2.28c.14.13.36.03.36-.16l0-11.21c0-.31-.13-.61-.36-.82l-2.58-2.28c-.14-.12-.36-.02-.36.16z"/>
  <path style="fill:#ffffff;" d="M292.84 205.59c-.08-.3-.28-.56-.55-.71l-3.02-1.75c-.16-.09-.34.06-.3.23l3.06 11.36c.08.31.27.57.52.76l3.25 2.36c.13.09.31-.03.27-.18l-3.18-11.88z"/>
  <path style="fill:#ffffff;" d="M241.45 192.84l-13.57 0 0-14.53 33.07 0 0 10.6-19.5 0z"/>
  <path style="fill:#ffffff;" d="M241.45 208.66l-13.57 0 0-14.5 13.57 0 0 3.91 19.5 0 0 6.66-19.5 0z"/>
  <path style="fill:#ffffff;" d="M260.95 224.48l-33.08 0 0-14.51 13.58 0 0 3.92 19.5 0z"/>
  <path style="fill:#721e77;" d="M260.95 198.07l-19.5 0 0-9.16 19.5 0z"/>
  <path style="fill:#721e77;" d="M260.95 213.89l-19.5 0 0-9.16 19.5 0z"/>
  <path style="fill:#fd4f00;" d="M322.57 200.78c.28 1.24 1.28 3.8 3.16 3.92 1.7.11 3.02-1.84 3.51-3.09 1.05-2.66.04-6.44-2.17-7.11-1.29-.39-2.53.43-2.75.57-1.94 1.29-2.14 4-1.75 5.71"/>
  <path style="fill:#ff9e19;" d="M303.31 205.59c-1.74-3.86-1.1-9.35 2.34-12.86 4.23-4.3 11.04-3.92 15.39-1.41 6.86 3.96 8.96 13.99 5.41 18.55-4.57 5.84-19.45 3.91-23.14-4.28"/>
  <path style="fill:#721e77;" d="M309.68 194.72c-.31-.34 1.77-2.68 3.99-2.11 2.17.57 2.46 3.41 1.95 3.56-.35.11-1.02-1.18-2.76-1.59-1.7-.4-2.97.37-3.18.14"/>
  <path style="fill:#721e77;" d="M318.93 197.12c-.39-.29 1-2.51 2.76-2.24 2.01.32 2.98 3.64 2.57 3.74-.29.07-1.16-1.5-2.84-1.82-1.36-.26-2.23.5-2.49.32"/>
  <path style="fill:#fd4f00;" d="M300.5 194.18c-.26 1.25-.39 3.99 1.31 4.88 1.54.81 3.59-.42 4.58-1.36 2.1-1.99 2.74-5.84.95-7.37-1.05-.89-2.54-.66-2.81-.62-2.35.36-3.67 2.74-4.03 4.47"/>
  <path style="fill:#fd4f00;" d="M305.07 190.48c3.23-4.32 8.87-6.17 13.96-4.62 4.59 1.4 8.01 5.32 8.78 10.07-.39-.11-.78-.21-1.17-.32-.78-4.13-3.8-7.5-7.79-8.63-4.64-1.32-9.8.63-12.49 4.85z"/>
  <path style="fill:#fd4f00;" d="M186.93 176.34c-1.09-.03-1.93.22-2.75.47l-.16.05c-4.89 1.85-7.32 5.65-7.59 8.55-.02.17-.04.34-.05.51l0 .07c.02.32.29 31.33.28 32.83-.37-.26-1.43-.66-3.46-1.87-4.27-2.57-1.11-7.01-1.11-7.02 0 0-3.49 2-4.36 3.78-1.46 3.04.23 6.17 4.5 7.79 4.69 1.78 7.33 5.35 7.33 5.35l-.49-38.8c0 0 1.75.5 3.84-.05 2.36-.7 4.2-1.89 5.63-3.64l.04-.05c.85-1.08 2.02-2.55 2.01-4.55.01-1.3-.94-3.28-3.66-3.42"/>
  <path style="fill:#ffffff;" d="M204.51 195.79c0 0-.71-1.27-.8-1.5-.09-.23 1.06.56 1.05.55l1.57 1.2 16.57-1.77-.45 2.02-14.53.77-4.09 1.01-1.36-1.27z"/>
  <path style="fill:#ffffff;" d="M205.23 188.37c.25-.11.5-.22.76-.34l-6.36 21.42-.44-.74z"/>
  <path style="fill:#ffffff;" d="M202.45 189.62c.25-.11.5-.22.75-.34l-5.17 17.42-.44-.75z"/>
  <path style="fill:#ffffff;" d="M207.98 187.23c.24-.09.49-.18.74-.26l-7.49 25.23-.44-.74z"/>
  <path style="fill:#ffffff;" d="M213.26 185.72c.23-.05.46-.1.7-.14l-9.42 31.72c-.07.09-.12.19-.19.28l-.36-.62z"/>
  <path style="fill:#ffffff;" d="M210.66 186.34c.23-.07.47-.13.72-.19l-8.56 28.81-.43-.75z"/>
  <path style="fill:#ffffff;" d="M194.71 191.29c.21.02.43.04.64.04l-2.12 7.12-.43-.75z"/>
  <path style="fill:#ffffff;" d="M199.71 190.7c.24-.08.49-.17.73-.26l-4.01 13.51-.43-.75z"/>
  <path style="fill:#ffffff;" d="M192.41 190.9c.2.05.41.09.61.13l-1.38 4.67-.44-.75z"/>
  <path style="fill:#ffffff;" d="M197.12 191.29c.05 0 .1-.01.15-.02.18-.02.36-.06.54-.09l-2.98 10.02-.43-.75z"/>
  <path style="fill:#ff9e19;" d="M188.97 191.11c-.44-2.1 3.69.74 8.3.16 5.04-.63 9.45-4.86 18.32-5.93-.53 7.65-2.81 20.49-11.24 32.24zm-3.85 1.52 12.69 29.53 9.49 0-1.53-2.13c9.22-12.72 13.28-27.6 13.59-34.94l.13-2.95c.07-1.63-1.41-2.93-3.01-2.59-11.05 2.32-16.78 8.64-19.79 9.02-3.69.46-5.85-.46-9.23-.05-1.95.25-3.12 2.3-2.34 4.11"/>
  <path style="fill:#fd4f00;" d="M204.88 218.45l-.53-.87c8.43-11.75 10.7-24.59 11.24-32.24l1.62-.3c-.51 19.17-12.33 33.4-12.33 33.41"/>
  <path style="fill:#eeeeee;" d="M188.96 191.09l15.92 27.36-.37.38-15.38-26.47c0 0-.35-.58-.17-1.27"/>
  <path style="fill:#fd4f00;" d="M185.65 189.47c.01 1.2.64 2.72 1.9 5.11 2.01 3.82 13.86 27.58 13.86 27.58l-3.61 0-12.68-29.53c-.48-1.12-.21-2.34.53-3.16"/>
  <path style="fill:#ffffff;" d="M219.48 182.38c-.42-1.1-1.59-1.83-2.84-1.58-11.05 2.32-16.78 8.64-19.79 9.02-3.69.47-5.85-.46-9.22-.04-1.44.18-2.45 1.34-2.58 2.66-.62-1.76.54-3.68 2.42-3.92 3.38-.42 5.53.5 9.22.05 3.01-.38 8.74-6.7 19.79-9.02 1.6-.34 3.08.96 3.01 2.6z"/>
  <path style="fill:#fd4f00;" d="M208.72 186.97l-.43 1.46c-.25.09-.5.18-.74.28l.43-1.48c.24-.09.49-.18.74-.26"/>
  <path style="fill:#fd4f00;" d="M205.99 188.04l-.46 1.52c-.25.11-.51.22-.75.33l.45-1.52c.25-.11.5-.22.76-.33"/>
  <path style="fill:#fd4f00;" d="M211.38 186.15l-.42 1.4c-.25.07-.48.15-.72.22l.42-1.43c.23-.07.47-.13.72-.19"/>
  <path style="fill:#fd4f00;" d="M194.71 191.29c.21.02.43.04.64.04l-.36 1.22c-.22-.02-.43-.04-.64-.07z"/>
  <path style="fill:#fd4f00;" d="M213.96 185.58l-.4 1.36c-.23.04-.47.09-.7.14l.4-1.36c.23-.05.46-.1.7-.14"/>
  <path style="fill:#fd4f00;" d="M193.02 191.03l-.34 1.15c-.21-.05-.42-.1-.61-.15l.34-1.13c.2.05.41.09.61.13"/>
  <path style="fill:#fd4f00;" d="M197.27 191.27c.18-.02.36-.06.54-.09l-.4 1.34c-.23.03-.45.04-.68.06l.39-1.3c.05-.01.1-.01.15-.01"/>
  <path style="fill:#fd4f00;" d="M203.2 189.28l-.45 1.53c-.25.11-.51.23-.75.33l.45-1.52c.25-.11.5-.22.75-.34"/>
  <path style="fill:#fd4f00;" d="M200.44 190.44l-.43 1.46c-.24.08-.48.16-.73.23l.43-1.43c.24-.08.49-.16.73-.26"/>
  <path style="fill:#ffffff;" d="M196.86 221.9l12.41 0c.83 0 1.51.68 1.51 1.51l0 1.27-15.43 0 0-1.27c0-.83.68-1.51 1.5-1.51"/>
  <path style="fill:#fd4f00;" d="M210.78 224.68l-15.43 0 0-.64 15.43 0z"/>
  <path style="fill:#ffffff;" d="M196.86 221.9l12.41 0c.83 0 1.51.68 1.51 1.51l0 .63c0-.84-.68-1.51-1.51-1.51l-12.42 0c-.83 0-1.51.68-1.5 1.51l0-.63c0-.83.68-1.51 1.5-1.51"/>
  <path style="fill:#fd4f00;" d="M216.67 218.48c0 .44 1.9 2.49 1.17 3.51-.73 1.02-2.19 1.47-2.19 1.46l-.59.88 3.95-.15c0 0 0-1.61.59-1.75.58-.14.44 1.9.44 1.9 0 0 1.02-2.63.14-3.22-.87-.58-2.05-2.48-2.05-2.48z"/>
  <path style="fill:#fd4f00;" d="M221.26 218.65c0 .44 1.9 2.48 1.17 3.5-.73 1.02-2.19 1.47-2.19 1.47l-.59.87 3.95-.14c0 0 0-1.61.59-1.76.59-.14 1.01 1.9 1.01 1.9 0 0 .45-2.63-.43-3.21-.88-.59-2.05-2.49-2.04-2.49z"/>
  <path style="fill:#ffffff;" d="M221.08 194.48c0 0-.25-2.41-1.14-2.03-.89.38-1.65.13-1.78-1.02-.12-1.14.76-3.94 1.91-4.32 1.15-.38 2.92-.38 2.92-.38l1.01 7.37z"/>
  <path style="fill:#39d52d;" d="M229.47 205.79c-.84-4.44-9.14-2.84-4.7-10.85 1.17-2.11-1.28-1.48-1.27-1.48 0 0-1.4-.12-1.66-.12l-3.55 3.85 3.85 8.29c0 0-9.06-.07-10.33 1.2-1.05 1.06-.53 9.96-.33 12.98l13.18 0c-1.23-2.12-5.03-9-2.56-9.3 4.19-.51 8.07-.85 7.37-4.57"/>
  <path style="fill:#ff9e19;" d="M223.49 198.65c-.25-2.41 2.2-3.96.66-4.51-1.19-.42-2.39 1.29-2.45-.66-.02-.74.02-1.4-.75-1.92-.6-.41-1.32.38-1.77-.61-.39-.85 1.82-3.09-.51-2.95 0 0 .89-1.52 2.28-2.16 1.8-.82 2.93.89 2.93 2.29 0 1.4 0 1.02 1.14 1.53 1.15.51 3.15.95 2.35 4.3-.47 2-3.88 4.68-3.88 4.69"/>
  <path style="fill:#ffffff;" d="M211.71 199.22c2.48 1.3 8.98 2.72 8.99 2.72l1.71-3.13 1.63-3.21c0 0-.98-1.82-1.81-.64-.83 1.18-2.72 4.97-2.72 4.97l-6.5-1.42.36-2.72-1.19 1.65-.59-2.01-1.3 2.01z"/>
  <path style="fill:#fd4f00;" d="M226.03 187.84c3.4-.12 4.97 3.43 3.04 6.68.72-2.96-.56-5.73-3.04-6.68m3.72-.33c1.69-.07 2.43 1.82 1.49 3.54.29-1.53-.34-3.01-1.49-3.54"/>
  <path style="fill:#fd4f00;" d="M307.39 220.13c-1.61 1.34-3.89-.14-4.37-2.69.98 1.87 2.8 2.98 4.37 2.69m3.88-3.26c-3.32 2.6-7.71-.17-8.34-5.12 1.62 3.77 5.1 5.89 8.34 5.12"/>
  <path style="fill:#721e77;" d="M314.18 208c-.07.13.76.94 1.86 1.07.95.11 1.82-.33 1.79-.47-.02-.11-.65.03-1.75-.13-1.23-.18-1.85-.57-1.9-.47"/>
  <path style="fill:#721e77;" d="M310.18 204.21c2.2 3.24 7.23 4.6 10.43 2.73 1.4-.81 2.92-2.5 2.53-3.66-.39-1.13-2.3-.84-6.28-1.87-4.86-1.26-6.66-2.9-7.58-2.05-.9.84-.16 3.3.9 4.85"/>
  <path style="fill:#fd4f00;" d="M313.47 206.92c-.22-.83-.62-1.63-1.28-2.33-.77-.82-1.71-1.33-2.69-1.6.2.43.42.85.68 1.22.8 1.18 1.97 2.1 3.29 2.71"/>
  <path style="fill:#ffffff;" d="M316.52 202.78c2.26.57 4.68.53 6.46.21-.62-.8-2.53-.65-6.12-1.58-4.02-1.04-5.94-2.34-7.01-2.27 1.06 1.22 3.84 2.93 6.67 3.64"/>
  <path style="fill:#fd4f00;" d="M204.31 182.65c.21-.03.36-.12.51-.2l.03-.02c.86-.55 1.17-1.37 1.1-1.94 0-.03-.01-.07-.01-.1l0-.01-.01 0c-.02-.06-1.11-5.02-1.16-5.32.08.04.3.07.73.22.92.32.5 1.3.5 1.3 0 0 .59-.52.68-.9.16-.64-.29-1.17-1.18-1.3-.97-.15-1.62-.73-1.61-.73l1.45 6.44c0 0-.35-.03-.74.17-.42.23-.72.53-.92.92l-.01.01c-.12.24-.28.57-.2.95.05.25.31.59.84.51"/>
  <path style="fill:#fd4f00;" d="M199.94 179.64c.21-.18.32-.37.42-.56l.02-.04c.58-1.18.38-2.29-.07-2.86-.02-.03-.05-.07-.08-.11l-.01-.01c-.06-.06-4.55-4.8-4.81-5.08.11-.01.38-.12.96-.25 1.22-.26 1.4 1.1 1.4 1.1 0 0 .3-.96.16-1.43-.25-.8-1.1-1.09-2.16-.67-1.17.47-2.26.27-2.26.27l5.87 6.14c0 0-.41.21-.7.67-.31.54-.44 1.07-.41 1.63l0 .01c.03.35.07.82.41 1.19.22.24.74.44 1.26 0"/>
  <path style="fill:#ffffff;" d="M322.2 214.36c.19-.21.4-.44.61-.71.22-.27.43-.54.64-.83.21-.28.4-.57.56-.87.17-.29.3-.57.39-.84.02-.09.04-.16.05-.22.01-.06 0-.09-.02-.1-.09-.02-.19.01-.32.1-.12.09-.26.22-.41.39-.14.17-.29.37-.44.6-.15.23-.29.48-.43.76-.14.27-.26.56-.37.84-.11.29-.2.59-.26.87m-.82 3.59c-.16-.04-.3-.14-.41-.31-.11-.18-.18-.39-.23-.66-.05-.26-.07-.56-.05-.88.01-.33.06-.67.13-1.02.06-.27.15-.55.26-.85.11-.3.24-.61.39-.93.15-.31.32-.63.5-.94.18-.31.37-.6.57-.89.2-.28.41-.53.62-.76.22-.23.43-.43.64-.59.21-.16.42-.28.63-.35.21-.07.41-.09.59-.05.13.03.23.08.3.16.07.08.12.17.15.28.03.11.04.22.02.35-.01.13-.02.25-.05.37-.06.28-.16.56-.29.84-.13.27-.28.55-.47.82-.18.27-.37.54-.57.8-.21.27-.43.52-.65.78-.22.25-.44.51-.67.76-.22.25-.43.49-.63.72-.02.03-.05.06-.07.11-.03.04-.05.09-.09.14-.03.06-.05.11-.08.17-.03.06-.05.12-.08.18l-.01.06c-.02.08-.03.16-.03.23 0 .08 0 .15.02.21.01.07.02.12.04.16.02.04.04.07.07.07.06.01.12.02.2.01.08-.01.16-.02.25-.05.09-.02.19-.05.29-.08.1-.03.2-.07.29-.1.22-.08.45-.18.69-.3l.15 1.03c-.31.13-.61.24-.9.33-.13.04-.26.07-.4.1-.14.04-.27.06-.4.08-.14.02-.26.03-.39.04-.12 0-.23-.01-.33-.04"/>
  <path style="fill:#ffffff;" d="M324.15 217.05c-.02.07-.03.15-.04.22-.01.07 0 .14.02.2.02.06.04.11.07.16.04.04.09.07.16.09.11.02.22 0 .34-.08.11-.08.22-.17.3-.29.1-.12.18-.25.26-.38.07-.13.13-.25.16-.34l.58-1.26c-.12-.03-.25-.02-.39.01-.13.04-.26.09-.38.17-.12.08-.25.18-.37.3-.12.11-.23.24-.32.37-.09.13-.18.27-.25.42-.07.14-.12.28-.14.41m3.75 1.22c-.09.08-.21.17-.36.28-.14.1-.3.2-.47.27-.17.09-.34.15-.53.2-.18.05-.36.05-.52.01-.19-.05-.35-.15-.45-.31-.1-.16-.18-.37-.21-.63-.09.07-.2.13-.32.19-.12.06-.26.12-.4.16-.14.04-.28.07-.43.09-.14.02-.28.01-.42-.03-.14-.03-.28-.09-.4-.18-.12-.09-.22-.2-.3-.33-.08-.13-.13-.28-.16-.46-.03-.17-.02-.35.02-.55.05-.22.13-.44.25-.67.12-.22.26-.43.43-.63.16-.2.34-.39.53-.56.2-.16.4-.3.62-.41.21-.11.43-.19.65-.23.22-.04.43-.04.63.01.07.02.12.04.16.08.04.04.06.07.07.11.02.04.04.08.05.12.02.04.04.07.07.09.04.02.07.04.11.05.04.02.07.03.11.04.03.01.07.01.1.02.03.01.07.02.11.02.04.01.08.03.12.04.04.02.07.05.09.08.02.04.04.09.04.14 0 .06 0 .13-.03.23-.03.15-.09.3-.15.47-.07.17-.14.34-.22.52-.08.18-.15.35-.23.52-.07.18-.12.35-.16.51-.03.14-.04.25-.04.34.01.09.06.14.14.16.06.02.13.02.21 0 .08-.01.16-.04.23-.08.08-.03.16-.07.25-.12.09-.05.16-.1.25-.15.18-.13.37-.28.57-.45z"/>
  <path style="fill:#39d52d;" d="M325.11 205.34c.35.11.65.1.94.09l.05 0c1.76-.16 2.89-1.19 3.24-2.11.03-.05.05-.11.06-.16l.01-.03c.02-.1 2.27-8.62 2.4-9.11.1.12.41.34.96.92 1.16 1.22-.26 2.39-.26 2.39 0 0 1.32-.34 1.76-.85.75-.86.48-2.03-.77-2.94-1.37-1-1.91-2.4-1.92-2.4l-2.86 11.08c0 0-.53-.32-1.27-.32-.83.02-1.53.24-2.15.68l-.02.01c-.37.27-.89.65-1.06 1.31-.12.43.01 1.16.89 1.44"/>
  <path style="fill:#fd4f00;" d="M208.2 185.81c.15.01.27-.02.38-.04l.03 0c.68-.21 1.05-.71 1.11-1.11.01-.02.01-.05.01-.07l0-.01c0-.04.2-3.6.21-3.81.05.04.19.1.46.29.56.39.09.97.09.97 0 0 .5-.24.63-.48.23-.4.02-.84-.55-1.1-.62-.28-.95-.8-.95-.8l-.24 4.63c0 0-.23-.09-.53-.03-.33.07-.59.22-.8.45l0 .01c-.12.14-.3.33-.32.6-.01.18.1.46.47.5"/>
  <path style="fill:#ff9e19;" d="M159.49 205.65c.11-.23.22-.46.32-.7.02-.04.04-.09.05-.13.09-.24.18-.48.27-.72.02-.04.03-.08.04-.12.08-.26.16-.52.23-.78 0 0 0-.01 0-.01.07-.26.13-.53.18-.8.01-.04.02-.08.02-.12.05-.26.09-.52.12-.78 0-.05.01-.1.02-.15.03-.27.05-.53.06-.8 0-.04 0-.09.01-.13.01-.28.02-.57.01-.85-.01-.48-.05-.96-.12-1.41-.39-2.75-1.68-4.98-3.49-6.3-.3-.22-.61-.41-.94-.58l-3.77-1.91c.49.25.96.56 1.39.93 1 .86 1.82 2.01 2.38 3.39.08.2.15.4.22.6.27.82.45 1.71.53 2.66.02.23.03.47.04.71.01.29 0 .57-.01.85 0 .04 0 .08 0 .13-.02.27-.03.54-.07.8 0 .05-.01.1-.02.15-.03.26-.07.52-.12.78-.01.04-.02.08-.02.12-.05.27-.11.54-.18.8 0 0 0 .01 0 .01-.07.27-.15.52-.23.78-.01.04-.03.08-.04.12-.08.25-.17.48-.27.72-.02.05-.03.09-.05.13-.1.24-.2.47-.32.7-.02.04-.03.07-.05.1-.12.23-.24.47-.36.69 0 .01 0 .01-.01.02-.13.22-.26.43-.4.63-.02.04-.05.07-.07.11-.13.2-.27.39-.42.58l-.08.1c-.15.19-.3.38-.47.55-.01.01-.02.02-.03.04-.16.17-.32.34-.48.49-.03.03-.06.06-.09.09-.07.06-.13.12-.2.18-.05.05-.1.1-.16.14-.07.06-.14.11-.2.17-.05.04-.1.09-.16.13-.07.06-.15.11-.22.16-.05.04-.1.08-.15.11-.08.06-.16.11-.25.17-.05.03-.09.06-.14.09-.1.06-.2.12-.3.18-.03.02-.06.04-.1.06-.14.07-.27.15-.4.21-.03.02-.07.04-.11.05-.1.05-.2.09-.31.14-.05.02-.1.04-.15.06-.09.04-.18.07-.27.1-.03.01-.06.02-.08.03-.16.05-.31.1-.47.14-.05.02-.1.03-.15.04-.18.05-.37.09-.56.12l-4.62.79-1.71.28 3.76 1.91 1.7-.29 4.63-.78c.19-.03.37-.07.56-.12.05-.01.1-.02.14-.04.16-.04.31-.09.47-.14.02 0 .04-.01.07-.02.01 0 .02 0 .02-.01.09-.03.18-.07.26-.1.06-.02.11-.04.16-.06.1-.04.2-.09.3-.14.04-.02.07-.03.12-.05.14-.07.27-.14.4-.21.03-.02.06-.04.1-.06.1-.06.2-.12.3-.18.05-.03.1-.07.14-.1.08-.05.16-.1.24-.16.06-.04.11-.08.16-.11.07-.05.15-.1.22-.16.06-.04.11-.09.16-.14.07-.05.14-.11.2-.16.06-.05.11-.09.16-.14.07-.06.13-.12.2-.18.01-.01.02-.02.04-.04.02-.02.03-.03.05-.05.16-.16.32-.32.48-.5.01-.01.02-.02.03-.03.16-.18.32-.36.46-.55.03-.03.06-.07.09-.11.15-.19.29-.38.42-.57.02-.03.05-.07.07-.11.14-.21.27-.42.4-.64 0 0 .01-.01 0-.01.13-.22.25-.45.37-.69.02-.03.04-.07.05-.1"/>
  <path style="fill:#ffffff;" d="M156.84 180.6c-1.78-.91-3.76-1.47-5.86-1.63-1.34-.1-2.72-.04-4.14.19l-10.19 1.73-3.75.63 3.76 1.91 3.75-.63 10.19-1.73c1.42-.24 2.81-.3 4.14-.19 2.1.16 4.07.73 5.85 1.63z"/>
  <path style="fill:#ff9e19;" d="M142.3 210.93l-.11-.64 6.65-1.13c.16-.03.33-.06.53-.11l.15-.04c.15-.04.3-.09.44-.13l.09-.03c.07-.02.13-.05.2-.08l.11-.05c.03-.01.06-.02.09-.03.1-.04.2-.09.3-.13l.1-.05c.13-.06.26-.13.39-.21l.09-.05c.1-.05.2-.11.29-.17l.17-.11c.07-.04.13-.09.2-.14.04-.02.07-.05.1-.07l.07-.06c.07-.04.13-.09.19-.14.04-.03.07-.06.11-.09l.07-.06c.06-.05.11-.09.17-.14.04-.03.08-.07.12-.1l.04-.03c.07-.07.13-.12.19-.17l.08-.09c.17-.16.32-.32.47-.48l.27.19-.24-.22c.15-.16.29-.34.45-.54l.08-.1c.14-.18.28-.37.41-.56l.07-.11c.15-.22.28-.43.39-.62.13-.22.24-.43.36-.68l.05-.1c.1-.21.2-.43.31-.68l.05-.13c.1-.24.18-.47.27-.7l.03-.12c.09-.28.16-.53.23-.76.06-.25.12-.5.17-.79l.03-.11c.04-.24.08-.5.11-.77l.02-.15c.03-.27.05-.53.06-.78l.01-.11c.01-.31.02-.58 0-.84 0-.23-.02-.47-.03-.7-.07-.9-.25-1.77-.52-2.57-.07-.2-.14-.39-.22-.59-.52-1.31-1.32-2.44-2.28-3.26-.41-.35-.85-.65-1.32-.89l-.29-.14.29-.58.3.14c.51.26 1 .59 1.44.97 1.05.9 1.9 2.11 2.47 3.52.08.2.16.41.23.62.29.86.47 1.78.55 2.73.02.24.03.48.04.74.01.27 0 .55-.02.87l0 .13c-.01.26-.03.54-.07.81l-.01.16c-.03.28-.08.55-.13.8l-.02.12c-.06.31-.12.57-.18.82-.07.26-.14.52-.24.81l-.04.12c-.08.24-.17.49-.27.74l-.06.14c-.11.26-.21.49-.32.71l-.05.11c-.13.26-.25.49-.38.7-.13.22-.26.43-.42.67l-.07.11c-.14.2-.28.4-.43.59l-.09.11c-.17.22-.33.41-.48.57 0 0-.02.03-.02.03-.16.18-.32.34-.5.52l-.1.09c-.06.06-.12.11-.18.16l-.05.05c-.04.04-.09.07-.13.12-.06.05-.12.1-.19.15l-.07.06c-.04.03-.08.07-.12.09-.07.05-.13.1-.2.16l-.07.05c-.03.03-.07.06-.12.08-.07.05-.14.1-.22.15l-.08.05c-.03.02-.07.04-.1.07-.1.06-.21.13-.31.18l-.1.06c-.14.08-.28.15-.42.22l-.11.05c-.11.05-.21.1-.32.15-.04.02-.07.03-.11.04l-.1.04c-.07.03-.15.06-.23.09l-.08.03c-.16.06-.32.11-.49.15l-.16.04c-.21.06-.41.09-.58.12z"/>
  <path style="fill:#39d52d;" d="M152.65 211.33l-4.63.78-1.7.29-.54-20.67 1.7-.29 4.63-.78c4.66-.78 8.56 3.2 8.71 8.9.15 5.71-3.51 10.97-8.17 11.77m-2.05-30.26-10.19 1.73-3.75.63 1.05 40.26 3.74-.62 10.19-1.75c10.25-1.73 18.33-12.14 18.05-23.26-.29-11.11-8.84-18.71-19.09-16.99"/>
  <path style="fill:#ff9e19;" d="M137.71 223.7l-3.76-1.91-1.05-40.27 3.76 1.91z"/>
  <path style="fill:#721e77;" d="M146.12 192l.52 20.02 5.96-1.01c4.5-.77 8.04-5.91 7.89-11.44-.08-2.99-1.23-5.62-3.15-7.2-1.47-1.21-3.31-1.7-5.17-1.39zm.21 20.73c-.08 0-.16-.02-.22-.08-.07-.06-.11-.15-.11-.24l-.54-20.68c0-.16.11-.3.27-.32l6.33-1.07c2.06-.34 4.08.2 5.7 1.53 2.07 1.7 3.3 4.5 3.38 7.69.15 5.84-3.63 11.27-8.43 12.09l-6.34 1.07c-.02 0-.03 0-.04.01"/>
  <path style="fill:#721e77;" d="M134.36 221.59l3.4 1.77 3.63-.62 10.2-1.74c10.08-1.7 18.06-11.99 17.77-22.93-.18-6.82-3.51-12.52-8.92-15.27l-3.75-1.91c-1.78-.9-3.71-1.44-5.73-1.6-1.33-.1-2.69-.04-4.07.19l-13.66 2.31zm3.35 2.43c-.05 0-.11-.01-.15-.04l-3.67-1.91c-.1-.05-.17-.16-.18-.28l-1.13-40.26c-.01-.16.11-.3.27-.33l13.93-2.36c1.42-.24 2.84-.31 4.23-.19 2.11.16 4.12.72 5.97 1.66l3.76 1.91c5.62 2.85 9.09 8.77 9.27 15.83.29 11.25-7.92 21.83-18.32 23.59l-13.93 2.38c-.02 0-.03 0-.05 0"/>
  <path style="fill:#721e77;" d="M138.03 223.6l-.65.01-1.04-40.17c0-.16.11-.3.26-.33l13.94-2.36c1.42-.24 2.84-.3 4.23-.19 2.11.16 4.12.72 5.97 1.66l.29.14-.29.58-.3-.14c-1.78-.91-3.71-1.44-5.73-1.6-1.33-.1-2.69-.03-4.06.2l-13.66 2.3z"/>
  <path style="fill:#721e77;" d="M136.6 183.76l-3.72-1.84.29-.58 3.72 1.84z"/>
  <path style="fill:#ffffff;" d="M139.78 196.22c-.01 0-.02 0-.03.01-.24 0-.44-.19-.46-.44l-.03-1.44c-.01-.25.19-.44.43-.45.25 0 .45.19.45.42l.04 1.45c0 .23-.17.43-.4.45"/>
  <path style="fill:#ffffff;" d="M139.71 193.2c-.01 0-.02 0-.04 0-.25.01-.45-.18-.45-.43l-.17-6.94c-.01-.24.19-.44.43-.45.25 0 .45.19.45.43l.17 6.94c.01.23-.17.43-.39.45"/>
  <path style="fill:#fd4f00;" d="M210.32 195.61l-.39 1.34.67-.04.4-1.37zm-6.61-1.33c.03.08.14.29.26.53l.12-.4c-.23-.14-.43-.23-.38-.13m1.13 3.54.71-.18.53-1.79-.53-.41zm-2.17-.83.52.48.35-1.2-.77.38zm4.78.18.47-.12.22-.01.37-1.24-.68.08z"/>
</g>
</svg>
